<svg xmlns="http://www.w3.org/2000/svg" viewBox="0 0 800 450" role="img" aria-labelledby="title desc">
  <title id="title">Carrom board competition event</title>
  <desc id="desc">Premium illustrated banner showing a carrom board and striker.</desc>
  <defs>
    <linearGradient id="bg" x1="0" y1="0" x2="1" y2="1">
      <stop offset="0" stop-color="#07101f"/>
      <stop offset="1" stop-color="#1d2f20"/>
    </linearGradient>
    <linearGradient id="wood" x1="0" y1="0" x2="1" y2="1">
      <stop offset="0" stop-color="#f5d79a"/>
      <stop offset="1" stop-color="#9f6428"/>
    </linearGradient>
  </defs>
  <rect width="800" height="450" fill="url(#bg)"/>
  <circle cx="670" cy="90" r="170" fill="#3dd598" opacity=".12"/>
  <g transform="translate(138 64) rotate(5 260 170)">
    <rect x="0" y="0" width="500" height="320" rx="30" fill="url(#wood)" stroke="#2b1608" stroke-width="18"/>
    <rect x="42" y="42" width="416" height="236" rx="18" fill="#f5dfb2" stroke="#6a3b16" stroke-width="6"/>
    <circle cx="62" cy="62" r="24" fill="#121827"/>
    <circle cx="438" cy="62" r="24" fill="#121827"/>
    <circle cx="62" cy="258" r="24" fill="#121827"/>
    <circle cx="438" cy="258" r="24" fill="#121827"/>
    <circle cx="250" cy="160" r="46" fill="none" stroke="#6a3b16" stroke-width="5"/>
    <circle cx="250" cy="160" r="16" fill="#e84855"/>
    <circle cx="196" cy="132" r="15" fill="#111827"/>
    <circle cx="298" cy="138" r="15" fill="#ffffff"/>
    <circle cx="220" cy="198" r="15" fill="#ffffff"/>
    <circle cx="308" cy="210" r="15" fill="#111827"/>
    <circle cx="356" cy="206" r="28" fill="#f8fbff" stroke="#111827" stroke-width="5"/>
  </g>
  <text x="52" y="384" fill="#ffffff" font-family="Arial, sans-serif" font-size="46" font-weight="800">Carrom</text>
  <text x="52" y="416" fill="#9ff7d0" font-family="Arial, sans-serif" font-size="20" font-weight="700" letter-spacing="3">INDOOR GAMES</text>
</svg>
