<svg xmlns="http://www.w3.org/2000/svg" viewBox="0 0 800 450" role="img" aria-labelledby="title desc">
  <title id="title">Sack race event</title>
  <desc id="desc">Premium illustrated banner showing sack race participants.</desc>
  <defs>
    <linearGradient id="bg" x1="0" y1="0" x2="1" y2="1">
      <stop offset="0" stop-color="#081426"/>
      <stop offset="1" stop-color="#4a351f"/>
    </linearGradient>
  </defs>
  <rect width="800" height="450" fill="url(#bg)"/>
  <path d="M0 310c150-40 310-45 470-12 130 27 240 18 330-22v174H0z" fill="#f6b93b" opacity=".13"/>
  <g transform="translate(180 110)">
    <circle cx="70" cy="38" r="28" fill="#ffe29a"/>
    <path d="M28 108c20-52 70-56 94 0l36 160H0z" fill="#b97832"/>
    <path d="M26 128h104" stroke="#ffe29a" stroke-width="10" stroke-linecap="round"/>
  </g>
  <g transform="translate(405 86)">
    <circle cx="70" cy="38" r="28" fill="#ffe29a"/>
    <path d="M28 108c20-52 70-56 94 0l36 160H0z" fill="#9f6428"/>
    <path d="M26 128h104" stroke="#67e8f9" stroke-width="10" stroke-linecap="round"/>
  </g>
  <path d="M130 345h540" stroke="#ffffff" stroke-opacity=".35" stroke-width="5" stroke-dasharray="18 18"/>
  <text x="52" y="384" fill="#ffffff" font-family="Arial, sans-serif" font-size="46" font-weight="800">Sack Race</text>
  <text x="52" y="416" fill="#9ff7d0" font-family="Arial, sans-serif" font-size="20" font-weight="700" letter-spacing="3">FIELD EVENTS</text>
</svg>
