<svg xmlns="http://www.w3.org/2000/svg" viewBox="0 0 800 450" role="img" aria-labelledby="title desc">
  <title id="title">Throw ball event in action</title>
  <desc id="desc">Premium illustrated banner showing a ball over a net.</desc>
  <defs>
    <linearGradient id="bg" x1="0" y1="0" x2="1" y2="1">
      <stop offset="0" stop-color="#081426"/>
      <stop offset="1" stop-color="#3a2342"/>
    </linearGradient>
  </defs>
  <rect width="800" height="450" fill="url(#bg)"/>
  <circle cx="612" cy="118" r="92" fill="#ffd166" opacity=".16"/>
  <g stroke="#ffffff" stroke-opacity=".5" stroke-width="4">
    <line x1="110" y1="220" x2="690" y2="220"/>
    <line x1="110" y1="260" x2="690" y2="260"/>
    <line x1="110" y1="300" x2="690" y2="300"/>
    <line x1="150" y1="190" x2="150" y2="330"/>
    <line x1="230" y1="190" x2="230" y2="330"/>
    <line x1="310" y1="190" x2="310" y2="330"/>
    <line x1="390" y1="190" x2="390" y2="330"/>
    <line x1="470" y1="190" x2="470" y2="330"/>
    <line x1="550" y1="190" x2="550" y2="330"/>
    <line x1="630" y1="190" x2="630" y2="330"/>
  </g>
  <circle cx="430" cy="132" r="66" fill="#f6b93b"/>
  <path d="M374 124c35 12 72 14 113 4M392 87c16 42 16 82 2 122M459 82c-20 42-21 84-5 126" fill="none" stroke="#071226" stroke-width="7" opacity=".7"/>
  <path d="M174 270c32-78 94-90 142-38" fill="none" stroke="#67e8f9" stroke-width="14" stroke-linecap="round"/>
  <path d="M555 270c36-70 92-80 138-24" fill="none" stroke="#9ff7d0" stroke-width="14" stroke-linecap="round"/>
  <text x="52" y="384" fill="#ffffff" font-family="Arial, sans-serif" font-size="46" font-weight="800">Throw Ball</text>
  <text x="52" y="416" fill="#ffd9a3" font-family="Arial, sans-serif" font-size="20" font-weight="700" letter-spacing="3">GROUP GAMES</text>
</svg>
